<?xml version="1.0" encoding="utf-8"?>
<!-- Generator: Adobe Illustrator 19.0.0, SVG Export Plug-In . SVG Version: 6.00 Build 0)  -->
<svg version="1.1" id="Layer_1" xmlns="http://www.w3.org/2000/svg" xmlns:xlink="http://www.w3.org/1999/xlink" x="0px" y="0px"
	 viewBox="-265 358 81 78" enable-background="new -265 358 81 78" xml:space="preserve">
<g id="Layer_2_1_">
	<g id="XMLID_11_">
		<path id="svg_2_9_" fill="#00C59C" d="M-225.3,368.3c0,0,0-0.9,0.8-0.5c0.9,0.5,2.9,0.9,7.2,0.9c8-0.1,7.6,1.2,7.6,1.2
			s-2.9-0.5-6.9,1.8s-8.7,1.5-8.7,1.5"/>
	</g>
</g>
<path id="XMLID_91_" fill="#35333A" d="M-251.8,421L-251.8,421c-0.5,0-0.9-0.3-0.9-0.8v-9.9c0-0.4,0.3-0.8,0.8-0.8h0.1
	c0.4,0,0.8,0.3,0.8,0.8v9.9C-251,420.6-251.4,421-251.8,421z"/>
<path id="XMLID_82_" fill="#35333A" d="M-197,421L-197,421c-0.5,0-0.9-0.3-0.9-0.8v-9.9c0-0.4,0.3-0.8,0.8-0.8h0.1
	c0.4,0,0.8,0.3,0.8,0.8v9.9C-196.2,420.6-196.6,421-197,421z"/>
<path id="XMLID_78_" fill="#35333A" d="M-211.2,418.3L-211.2,418.3c-0.5,0-0.9-0.3-0.9-0.8v-7.2c0-0.4,0.3-0.8,0.8-0.8h0.1
	c0.4,0,0.8,0.3,0.8,0.8v7.2C-210.5,418-210.8,418.3-211.2,418.3z"/>
<path id="XMLID_72_" fill="#35333A" d="M-237.5,418.3L-237.5,418.3c-0.5,0-0.9-0.3-0.9-0.8v-7.2c0-0.4,0.3-0.8,0.8-0.8h0.1
	c0.4,0,0.8,0.3,0.8,0.8v7.2C-236.8,418-237.1,418.3-237.5,418.3z"/>
<path id="XMLID_70_" fill="#35333A" d="M-224.4,417.7L-224.4,417.7c-0.5,0-0.9-0.3-0.9-0.8v-6.6c0-0.4,0.3-0.8,0.8-0.8h0.1
	c0.4,0,0.8,0.3,0.8,0.8v6.6C-223.6,417.3-224,417.7-224.4,417.7z"/>
<path id="XMLID_66_" fill="#35333A" d="M-196.2,407.5L-196.2,407.5c0,0.5-0.3,0.9-0.8,0.9h-55c-0.4,0-0.8-0.3-0.8-0.8v-0.1
	c0-0.4,0.3-0.8,0.8-0.8h55C-196.6,406.8-196.2,407.1-196.2,407.5z"/>
<path id="XMLID_65_" fill="#35333A" d="M-202.6,396.8L-202.6,396.8c0,0.5-0.3,0.9-0.8,0.9h-42c-0.4,0-0.8-0.3-0.8-0.8v-0.1
	c0-0.4,0.3-0.8,0.8-0.8h42C-202.9,396-202.6,396.4-202.6,396.8z"/>
<path id="XMLID_64_" fill="#35333A" d="M-208.5,396.7c-0.5,0-0.9-0.4-1-0.9c-0.3-6.1-4.5-15.1-14.9-15.1c-4.3,0-8,1.5-10.7,4.2
	c-2.7,2.8-4.3,6.9-4.2,10.9c0,0.5-0.4,1-0.9,1s-1-0.4-1-0.9c-0.1-4.5,1.6-9.1,4.7-12.3c3-3.1,7.2-4.8,12.1-4.8
	c6.5,0,10.5,3.2,12.6,5.9c2.4,3,4,7.1,4.2,11.1C-207.5,396.2-208,396.7-208.5,396.7L-208.5,396.7z"/>
<path id="XMLID_63_" fill="#35333A" d="M-224.4,379.6L-224.4,379.6c-0.5,0-0.9-0.3-0.9-0.8v-11.4c0-0.4,0.3-0.8,0.8-0.8h0.1
	c0.4,0,0.8,0.3,0.8,0.8v11.4C-223.7,379.3-224,379.6-224.4,379.6z"/>
<path id="XMLID_62_" fill="#35333A" d="M-241.9,405.8L-241.9,405.8c-0.5,0-0.9-0.3-0.9-0.8v-5.4c0-0.4,0.3-0.8,0.8-0.8h0.1
	c0.4,0,0.8,0.3,0.8,0.8v5.4C-241.1,405.4-241.5,405.8-241.9,405.8z"/>
<path id="XMLID_61_" fill="#35333A" d="M-233.1,405.8L-233.1,405.8c-0.5,0-0.9-0.3-0.9-0.8v-5.4c0-0.4,0.3-0.8,0.8-0.8h0.1
	c0.4,0,0.8,0.3,0.8,0.8v5.4C-232.3,405.4-232.7,405.8-233.1,405.8z"/>
<path id="XMLID_60_" fill="#35333A" d="M-224.5,405.8L-224.5,405.8c-0.5,0-0.9-0.3-0.9-0.8v-5.4c0-0.4,0.3-0.8,0.8-0.8h0.1
	c0.4,0,0.8,0.3,0.8,0.8v5.4C-223.7,405.4-224.1,405.8-224.5,405.8z"/>
<path id="XMLID_57_" fill="#35333A" d="M-215.1,405.8L-215.1,405.8c-0.5,0-0.9-0.3-0.9-0.8v-5.4c0-0.4,0.3-0.8,0.8-0.8h0.1
	c0.4,0,0.8,0.3,0.8,0.8v5.4C-214.4,405.4-214.7,405.8-215.1,405.8z"/>
<path id="XMLID_53_" fill="#35333A" d="M-206.8,405.8L-206.8,405.8c-0.5,0-0.9-0.3-0.9-0.8v-5.4c0-0.4,0.3-0.8,0.8-0.8h0.1
	c0.4,0,0.8,0.3,0.8,0.8v5.4C-206.1,405.4-206.4,405.8-206.8,405.8z"/>
<polygon id="XMLID_52_" fill="#00C59C" points="-224.4,386.5 -223.6,388.7 -221.3,388.8 -223.1,390.2 -222.5,392.4 -224.4,391.2 
	-226.3,392.4 -225.7,390.2 -227.5,388.8 -225.2,388.7 "/>
<polygon id="XMLID_51_" fill="#00C59C" points="-217.2,387.3 -216.6,388.9 -214.9,389 -216.2,390 -215.8,391.6 -217.2,390.7 
	-218.6,391.6 -218.1,390 -219.4,389 -217.7,388.9 "/>
<polygon id="XMLID_50_" fill="#00C59C" points="-231.3,387.3 -230.7,388.9 -229.1,389 -230.4,390 -229.9,391.6 -231.3,390.7 
	-232.7,391.6 -232.3,390 -233.6,389 -231.9,388.9 "/>
<path id="XMLID_2_" fill="#333333" d="M-190.6,427.3c-0.1,0-0.3,0-0.4-0.1c-18-7.6-35.3-7.2-46.6-5.5c-12.2,1.8-20.3,5.5-20.4,5.5
	c-0.5,0.2-1.1,0-1.3-0.5s0-1.1,0.5-1.3c0.3-0.2,8.4-3.8,20.9-5.7c7.4-1.1,14.7-1.3,21.9-0.7c9,0.8,17.6,2.9,25.8,6.4
	c0.5,0.2,0.8,0.8,0.5,1.3C-189.9,427.1-190.2,427.3-190.6,427.3z"/>
</svg>
