<?xml version="1.0" encoding="utf-8"?>
<!-- Generator: Adobe Illustrator 19.0.0, SVG Export Plug-In . SVG Version: 6.00 Build 0)  -->
<svg version="1.1" id="Layer_1" xmlns="http://www.w3.org/2000/svg" xmlns:xlink="http://www.w3.org/1999/xlink" x="0px" y="0px"
	 viewBox="0 0 365.3 78" enable-background="new 0 0 365.3 78" xml:space="preserve">
<path id="XMLID_100_" fill="#343239" d="M88.9,42.9c0-11.5,8.7-19.3,19.9-19.3c8.2,0,12.9,4.4,15.6,9.1l-6.8,3.4
	c-1.6-3-4.9-5.4-8.7-5.4C102,30.7,97,35.9,97,42.9s4.9,12.3,11.7,12.3c3.8,0,7.2-2.4,8.7-5.4l6.8,3.3c-2.6,4.6-7.4,9.2-15.6,9.2
	C97.6,62.2,88.9,54.4,88.9,42.9z"/>
<path id="XMLID_97_" fill="#343239" d="M145.2,61.6v-2.9c-1.8,2.2-5,3.5-8.6,3.5c-4.3,0-9.3-2.9-9.3-9c0-6.4,5-8.7,9.3-8.7
	c3.6,0,6.8,1.2,8.6,3.3v-3.4c0-2.7-2.3-4.5-5.9-4.5c-2.9,0-5.5,1.1-7.8,3.2l-2.8-5c3.3-3,7.6-4.3,11.8-4.3c6.2,0,11.9,2.5,11.9,10.2
	v17.5H145.2z M145.2,55.1v-3.4c-1.2-1.6-3.4-2.4-5.7-2.4c-2.8,0-5.1,1.5-5.1,4.1s2.3,4,5.1,4C141.7,57.4,144,56.6,145.2,55.1z"/>
<path id="XMLID_94_" fill="#343239" d="M163.4,58.1v13.8h-7.1V34.6h7.1V38c2.1-2.6,5-4.1,8.3-4.1c6.9,0,12,5.1,12,14.2
	c0,9-5,14.2-12,14.2C168.6,62.2,165.7,60.9,163.4,58.1z M176.4,48c0-4.6-2.8-7.8-6.9-7.8c-2.3,0-4.9,1.3-6.1,3.1v9.5
	c1.2,1.7,3.8,3.1,6.1,3.1C173.6,55.9,176.4,52.7,176.4,48z"/>
<path id="XMLID_92_" fill="#343239" d="M187,27.4c0-2.3,1.9-4.2,4.2-4.2c2.3,0,4.3,1.8,4.3,4.2c0,2.3-1.9,4.3-4.3,4.3
	C188.9,31.6,187,29.7,187,27.4z M187.7,61.6v-27h7.1v27H187.7z"/>
<path id="XMLID_110_" fill="#343239" d="M203.3,54.8v-14h-4.5v-6.2h4.5v-7.4h7.1v7.4h5.5v6.2h-5.5v12.1c0,1.7,0.9,3,2.5,3
	c1.1,0,2.1-0.4,2.5-0.8l1.5,5.4c-1.1,1-3,1.7-5.9,1.7C205.9,62.2,203.3,59.7,203.3,54.8z"/>
<path id="XMLID_113_" fill="#343239" d="M219,48c0-7.7,5.4-14.2,14.3-14.2c9,0,14.3,6.5,14.3,14.2s-5.4,14.2-14.3,14.2
	C224.4,62.2,219,55.7,219,48z M240.2,48c0-4.2-2.5-7.8-6.9-7.8c-4.4,0-6.9,3.6-6.9,7.8c0,4.3,2.5,7.9,6.9,7.9
	C237.7,55.9,240.2,52.3,240.2,48z"/>
<path id="XMLID_116_" fill="#343239" d="M250.4,61.6V24.3h7.1v37.3H250.4z"/>
<path id="XMLID_118_" fill="#00C59C" d="M268.3,61.6v-6.4l17.6-23.9h-17.6v-7h28v6.4l-17.6,23.9h18v7H268.3z"/>
<path id="XMLID_120_" fill="#00C59C" d="M300.1,48c0-7.8,5.8-14.2,14-14.2c8.1,0,13.5,6,13.5,14.8v1.7h-20.1c0.5,3.3,3.2,6,7.8,6
	c2.3,0,5.4-1,7.2-2.6l3.2,4.7c-2.7,2.5-6.9,3.7-11.1,3.7C306.3,62.2,300.1,56.7,300.1,48z M314.1,39.7c-4.4,0-6.3,3.1-6.6,5.8h13.3
	C320.6,42.9,318.8,39.7,314.1,39.7z"/>
<path id="XMLID_123_" fill="#00C59C" d="M349.1,61.6V45.2c0-3.7-2-5-5-5c-2.8,0-4.9,1.6-6.2,3.1v18.2h-7.1v-27h7.1V38
	c1.7-2,5.1-4.1,9.5-4.1c6,0,8.8,3.4,8.8,8.6v19.1H349.1z"/>
<g id="Layer_2_2_">
	<g id="XMLID_182_">
		<g id="XMLID_184_">
			<path id="XMLID_185_" fill="#00C59C" d="M40.5,8.9c0,0,0-0.9,0.8-0.5c0.9,0.5,2.9,0.9,7.2,0.9c8-0.1,7.6,1.2,7.6,1.2
				s-2.9-0.5-6.9,1.8s-8.7,1.6-8.7,1.6"/>
		</g>
	</g>
</g>
<path id="XMLID_89_" fill="#343239" d="M14,61.6L14,61.6c-0.5,0-0.9-0.3-0.9-0.8v-9.9c0-0.4,0.3-0.8,0.8-0.8H14
	c0.4,0,0.8,0.3,0.8,0.8v9.9C14.8,61.2,14.5,61.6,14,61.6z"/>
<path id="XMLID_88_" fill="#343239" d="M68.9,61.6L68.9,61.6c-0.5,0-0.9-0.3-0.9-0.8v-9.9c0-0.4,0.3-0.8,0.8-0.8h0.1
	c0.4,0,0.8,0.3,0.8,0.8v9.9C69.6,61.2,69.3,61.6,68.9,61.6z"/>
<path id="XMLID_87_" fill="#343239" d="M54.6,58.9L54.6,58.9c-0.5,0-0.9-0.3-0.9-0.8v-7.2c0-0.4,0.3-0.8,0.8-0.8h0.1
	c0.4,0,0.8,0.3,0.8,0.8v7.2C55.4,58.6,55,58.9,54.6,58.9z"/>
<path id="XMLID_86_" fill="#343239" d="M28.3,58.9L28.3,58.9c-0.5,0-0.9-0.3-0.9-0.8v-7.2c0-0.4,0.3-0.8,0.8-0.8h0.1
	c0.4,0,0.8,0.3,0.8,0.8v7.2C29.1,58.6,28.7,58.9,28.3,58.9z"/>
<path id="XMLID_85_" fill="#343239" d="M41.4,58.3L41.4,58.3c-0.5,0-0.9-0.3-0.9-0.8v-6.6c0-0.4,0.3-0.8,0.8-0.8h0.1
	c0.4,0,0.8,0.3,0.8,0.8v6.6C42.2,57.9,41.9,58.3,41.4,58.3z"/>
<path id="XMLID_84_" fill="#343239" d="M69.6,48.1L69.6,48.1c0,0.5-0.3,0.9-0.8,0.9h-55c-0.4,0-0.8-0.3-0.8-0.8v-0.1
	c0-0.4,0.3-0.8,0.8-0.8h55C69.3,47.4,69.6,47.7,69.6,48.1z"/>
<path id="XMLID_83_" fill="#343239" d="M63.3,37.4L63.3,37.4c0,0.5-0.3,0.9-0.8,0.9h-42c-0.4,0-0.8-0.3-0.8-0.8v-0.1
	c0-0.4,0.3-0.8,0.8-0.8h42C62.9,36.6,63.3,37,63.3,37.4z"/>
<path id="XMLID_81_" fill="#343239" d="M57.3,37.3c-0.5,0-0.9-0.4-1-0.9c-0.3-6.1-4.5-15.1-14.9-15.1c-4.3,0-8,1.5-10.7,4.2
	c-2.7,2.8-4.3,6.9-4.2,10.9c0,0.5-0.4,1-0.9,1c-0.5,0-1-0.4-1-0.9c-0.1-4.5,1.6-9.1,4.7-12.3c3-3.1,7.2-4.8,12.1-4.8
	c6.5,0,10.5,3.2,12.6,5.9c2.4,3,4,7.1,4.2,11.1C58.3,36.8,57.9,37.3,57.3,37.3C57.3,37.3,57.3,37.3,57.3,37.3z"/>
<path id="XMLID_80_" fill="#343239" d="M41.4,20.2L41.4,20.2c-0.5,0-0.9-0.3-0.9-0.8V8.1c0-0.4,0.3-0.8,0.8-0.8h0.1
	c0.4,0,0.8,0.3,0.8,0.8v11.4C42.2,19.9,41.8,20.2,41.4,20.2z"/>
<path id="XMLID_79_" fill="#343239" d="M24,46.4L24,46.4c-0.5,0-0.9-0.3-0.9-0.8v-5.4c0-0.4,0.3-0.8,0.8-0.8H24
	c0.4,0,0.8,0.3,0.8,0.8v5.4C24.7,46,24.4,46.4,24,46.4z"/>
<path id="XMLID_77_" fill="#343239" d="M32.7,46.4L32.7,46.4c-0.5,0-0.9-0.3-0.9-0.8v-5.4c0-0.4,0.3-0.8,0.8-0.8h0.1
	c0.4,0,0.8,0.3,0.8,0.8v5.4C33.5,46,33.2,46.4,32.7,46.4z"/>
<path id="XMLID_76_" fill="#343239" d="M41.4,46.4L41.4,46.4c-0.5,0-0.9-0.3-0.9-0.8v-5.4c0-0.4,0.3-0.8,0.8-0.8h0.1
	c0.4,0,0.8,0.3,0.8,0.8v5.4C42.1,46,41.8,46.4,41.4,46.4z"/>
<path id="XMLID_75_" fill="#343239" d="M50.7,46.4L50.7,46.4c-0.5,0-0.9-0.3-0.9-0.8v-5.4c0-0.4,0.3-0.8,0.8-0.8h0.1
	c0.4,0,0.8,0.3,0.8,0.8v5.4C51.5,46,51.1,46.4,50.7,46.4z"/>
<path id="XMLID_74_" fill="#343239" d="M59,46.4L59,46.4c-0.5,0-0.9-0.3-0.9-0.8v-5.4c0-0.4,0.3-0.8,0.8-0.8H59
	c0.4,0,0.8,0.3,0.8,0.8v5.4C59.8,46,59.4,46.4,59,46.4z"/>
<polygon id="XMLID_73_" fill="#00C59C" points="41.5,27.1 42.3,29.3 44.6,29.4 42.8,30.8 43.4,33 41.5,31.8 39.5,33 40.2,30.8 
	38.4,29.4 40.7,29.3 "/>
<polygon id="XMLID_71_" fill="#00C59C" points="48.7,27.9 49.3,29.5 50.9,29.6 49.6,30.6 50.1,32.2 48.7,31.3 47.3,32.2 47.7,30.6 
	46.4,29.6 48.1,29.5 "/>
<polygon id="XMLID_69_" fill="#00C59C" points="34.5,27.9 35.1,29.5 36.8,29.6 35.5,30.6 35.9,32.2 34.5,31.3 33.1,32.2 33.6,30.6 
	32.3,29.6 33.9,29.5 "/>
<path id="XMLID_68_" fill="#333333" d="M75.2,67.9c-0.1,0-0.3,0-0.4-0.1c-18-7.6-35.3-7.2-46.6-5.5C16,64.1,7.9,67.8,7.8,67.8
	c-0.5,0.2-1.1,0-1.3-0.5c-0.2-0.5,0-1.1,0.5-1.3c0.3-0.2,8.4-3.8,20.9-5.7c7.4-1.1,14.7-1.3,21.9-0.7c9,0.8,17.6,2.9,25.8,6.4
	c0.5,0.2,0.8,0.8,0.5,1.3C76,67.7,75.6,67.9,75.2,67.9z"/>
</svg>
